PathFileType	4	(X/Y/Z)	C:/Users/beibeiliu/ov580/test_trc\sequence.15_training_dense_right.trc
DataRate	CameraRate	NumFrames	NumMarkers	Units	OrigDataRate	OrigDataStartFrame	OrigNumFrames
120	120	25	19	mm	120	38	75
Frame#	Time	ThumbCMC			ThumbMCP			ThumbIP			ThumbTip			IndexMCP			IndexPIP			IndexTip			MiddleMCP			MiddlePIP			MiddleTip			RingMCP			RingPIP			RingTip			PinkyMCP			PinkyPIP			PinkyTip			BackHand1			BackHand2			BackHand3	
		X0	Y0	Z0	X1	Y1	Z1	X2	Y2	Z2	X3	Y3	Z3	X4	Y4	Z4	X5	Y5	Z5	X6	Y6	Z6	X7	Y7	Z7	X8	Y8	Z8	X9	Y9	Z9	X10	Y10	Z10	X11	Y11	Z11	X12	Y12	Z12	X13	Y13	Z13	X14	Y14	Z14	X15	Y15	Z15	X16	Y16	Z16	X17	Y17	Z17	X18	Y18	Z18	
37	0.308333	93.6711	125.028	42.2334	92.9785	152.27	32.7119	101.318	174.702	19.5164	104.052	188.668	8.71984	145.445	150.82	2.55012	157.926	161.951	-11.1321	169.084	178.609	-23.7414	160.445	134.012	-4.61088	176.225	140.034	-18.8112	195.885	149.222	-32.7946	157.643	110.799	-6.44463	176.624	119.425	-20.8448	190.174	126.177	-30.148	149.843	86.1815	-8.91358	166.129	85.8497	-18.0537	182.478	87.098	-21.5773	132.845	95.4763	24.8998	123.406	84.5472	40.4326	123.88	115.449	39.0864	
38	0.316667	84.1617	125.413	39.9563	75.788	148.875	27.4767	75.585	171.348	14.5284	71.2429	184.009	5.01037	126.041	167.395	-4.69238	131.086	182.722	-17.7269	137.527	197.205	-33.6704	145.129	150.158	-9.64174	154.734	165.567	-22.2834	171.006	181.681	-36.5035	150.854	133.719	-11.5024	163.525	140.618	-21.7811	175.906	154.719	-32.9789	148.463	105.17	-9.72594	161.722	106.667	-18.3602	177.904	113.848	-23.0286	129.679	108.879	20.9261	123.38	98.3502	38.951	117.175	124.499	37.3817	
39	0.325	71.3785	126.899	38.1836	60.7185	146.605	20.396	55.397	161.872	6.43375	45.7197	172.799	-3.68818	97.527	168.772	-9.03069	98.6891	185.591	-25.7981	98.9813	200.328	-45.0323	121.159	164.441	-18.7094	129.574	177.192	-35.8825	139.486	192.001	-52.403	136.353	144.25	-20.067	143.412	157.376	-31.7104	152.608	171.472	-44.8935	139.368	121.767	-14.685	153.981	125.268	-24.3758	168.638	133.958	-30.919	124.519	119.004	15.6529	120.524	105.077	36.9492	104.538	133.713	33.0426	
40	0.333333	59.1146	122.561	30.3219	41.3512	128.84	14.0047	28.3765	138.659	-2.16316	19.0631	145.972	-17.8146	67.3415	160.923	-23.9372	65.5194	170.298	-44.9498	59.8952	181.234	-68.0699	95.0239	159.88	-32.4878	93.1356	170.776	-49.843	97.9562	187.499	-70.3927	113.658	146.22	-28.2314	116.072	161.295	-44.5474	122.6	173.565	-57.7155	128.875	129.405	-20.6172	138.972	137.839	-31.9756	149.322	148.953	-38.4531	108.169	131.059	9.55528	111.375	122.179	33.4893	88.1433	135.228	23.8461	
41	0.341667	50.4417	109.939	23.3594	30.9444	102.575	8.03027	19.6624	103.338	-14.2071	5.43043	100.33	-30.0448	45.8952	134.914	-39.6034	42.8308	136.919	-62.1453	35.9298	138.597	-81.7439	71.4201	145.132	-48.8616	73.4452	150.355	-67.6338	73.7685	161.997	-90.1764	96.373	143.536	-40.6554	94.8315	150.863	-55.2127	99.7517	164.271	-74.9829	115.657	133.237	-23.8006	122.041	144.831	-40.7579	130.488	154.603	-45.3835	93.5467	135.597	5.13469	95.0304	131.484	25.1614	66.6757	132.494	16.0343	
42	0.35	47.0157	101.088	19.4601	35.1739	83.1984	6.62617	22.6337	72.4557	-13.2677	10.133	62.6927	-25.2776	49.8993	103.822	-50.2454	48.3694	97.5066	-66.7467	44.0146	91.2175	-87.2833	74.0091	117.127	-56.5408	75.3482	115.739	-72.6371	74.5365	119.403	-97.4738	91.3502	121.796	-44.7808	95.7255	126.054	-64.1633	96.2985	130.547	-80.5165	114.082	124.363	-25.1812	121.046	129.063	-37.6814	127.523	141.284	-49.8453	85.1675	129.967	-0.411323	85.3879	133.85	19.9328	59.006	124.096	5.18574	
43	0.358333	44.6842	95.9508	22.1585	39.2954	74.1311	13.0753	28.7607	58.4593	0.755219	18.5962	46.4823	-7.07357	59.0496	78.7338	-40.4362	54.6212	61.301	-60.3752	53.9674	50.5478	-74.2392	81.7618	85.302	-46.2321	82.8235	74.9708	-66.9883	86.9757	70.2305	-87.4456	100.808	94.1921	-38.5737	107.118	87.6479	-60.1638	114.745	87.3229	-74.6023	122.212	101.508	-21.4781	128.715	98.1217	-34.1277	138.454	105.226	-44.9958	88.6603	116.805	-1.72477	86.04	128.789	15.5423	65.2656	116.756	5.36603	
44	0.366667	53.7488	94.0473	24.1109	41.2895	74.1265	24.0933	28.1186	57.2862	16.7015	13.8547	45.448	12.0965	58.7152	55.4131	-30.4179	55.0826	39.1799	-38.5497	56.5624	20.4512	-52.3609	83.9855	55.6058	-34.5322	88.2947	39.6141	-48.7626	89.6954	25.8651	-66.6321	106.575	60.6068	-28.2245	110.229	48.2733	-43.7589	117.237	39.7603	-56.0889	122.914	68.7466	-10.802	135.231	60.7454	-20.0277	141.704	59.509	-33.5743	98.9489	98.426	-3.17088	97.8567	118.078	17.8165	72.0669	107.526	5.7112	
45	0.375	61.7195	99.0257	27.2698	40.9145	82.1403	29.536	21.9945	71.1726	25.7222	4.93037	63.7463	24.1316	56.9799	51.4973	-16.0469	43.9475	31.897	-21.3939	36.7437	10.2341	-29.9962	75.4188	40.7524	-20.4053	71.45	22.5599	-28.2554	71.5118	-0.308237	-41.1539	96.7073	41.3684	-11.4797	96.7266	20.1424	-23.5833	98.6311	6.68494	-34.5053	120.76	42.1329	1.33305	120.418	30.4755	-3.44482	133.932	22.5357	-14.3187	102.854	83.1361	3.67952	114.198	105.058	16.0526	80.1126	99.4301	4.21481	
46	0.383333	71.1725	107.821	26.4407	49.3881	98.5954	31.2166	24.141	92.7987	29.247	11.2799	90.2482	30.1489	45.8343	57.6277	-7.84766	32.8583	38.6786	-10.311	17.1036	18.6124	-13.4078	63.407	37.8202	-8.71748	50.293	18.9147	-13.6655	41.6578	-2.50844	-19.3988	81.3313	32.2254	-1.18309	71.8875	11.1428	-7.04743	66.7819	-5.02944	-14.2637	105.281	24.7593	11.5334	101.763	8.90478	9.03175	100.519	-0.946137	-0.298135	106.121	65.3075	5.82157	120.966	85.8043	12.5513	92.9532	92.6737	4.37872	
47	0.391667	90.1326	110.474	24.9828	61.0815	115.819	30.3188	39.232	117.412	30.1833	21.3632	115.639	29.7427	42.4091	72.5919	-3.36625	22.8912	55.7348	-4.1276	2.0772	49.206	-4.17414	50.3587	43.6619	-1.54624	29.249	30.6678	-3.7984	10.9266	16.0163	-7.24746	66.0358	34.6606	6.7693	49.1036	16.0376	4.82753	36.7873	6.2558	1.11084	83.9513	23.6713	18.9808	72.4001	12.6344	17.5498	68.5865	-0.988201	11.0317	104.49	60.2824	7.04667	124.528	77.0135	12.7625	100.924	91.2231	4.78211	
48	0.4	101.415	113.795	22.7399	79.4097	127.66	28.6419	55.5698	135.103	27.9754	43.7346	142.087	29.6931	38.6605	86.2261	-2.28624	21.0661	86.694	-2.1441	-0.36631	79.3507	-0.203348	40.7306	60.3051	2.63917	18.67	57.0074	1.61696	-4.92643	47.7262	0.627545	50.7291	47.9052	9.92681	33.5932	38.5312	11.3541	11.5815	26.3785	9.77872	68.602	32.1795	25.272	56.0677	20.4004	27.622	42.9715	11.7443	22.2746	98.7293	59.009	10.4633	120.44	64.2164	12.2211	103.616	87.9489	3.6332	
49	0.408333	110.467	107.756	21.2208	91.6512	130.319	23.7627	79.8306	145.043	24.4479	66.5717	157.756	22.944	47.9809	102.378	-1.48637	22.2829	107.805	-2.75417	0.757194	111.554	-3.16022	41.8422	82.0368	2.3458	13.193	78.7278	3.13479	-7.50028	80.2603	1.92123	42.3523	59.5443	13.8516	23.0731	61.4991	12.3164	-0.0605665	56.4131	11.7961	55.1969	45.1626	27.7594	39.6632	36.5317	34.2798	26.0014	30.282	30.0228	89.6497	58.7605	11.328	113.962	59.6999	15.5629	106.272	82.773	3.47613	
50	0.416667	119.441	104.417	16.824	112.732	128.733	18.279	103.453	145.315	14.7612	96.2415	163.896	9.43377	58.9539	115.615	-11.3827	40.0096	127.055	-14.8506	21.7519	136.492	-17.3576	41.2502	97.1623	-4.65992	23.3094	104.619	-5.99674	-2.58174	106.972	-6.86121	39.2855	74.6489	10.6287	20.9965	80.9332	9.03964	-2.57584	83.7196	7.49309	43.9233	59.0081	29.0421	27.0416	59.5618	31.0671	12.6689	51.8842	35.9823	82.3756	63.3827	9.43867	106.041	53.262	15.256	106.869	76.1469	4.80903	
51	0.425	128.584	96.2495	13.1658	123.18	122.319	7.38476	120.908	140.24	2.72958	120.693	159.242	-5.76732	72.5226	117.818	-21.1715	58.3981	133.567	-27.9022	45.4951	151.682	-38.4123	52.6474	105.925	-13.6587	34.6492	119.954	-20.2168	12.0919	135.495	-27.8297	40.9157	89.7015	3.93175	22.1918	104.375	-4.0165	2.81286	110.232	-5.96583	37.6864	77.9384	24.0838	25.5562	80.9397	29.4834	3.82616	81.0063	27.8894	77.795	67.4689	7.28547	96.2071	50.313	19.0087	106.447	73.8581	0.0242459	
52	0.433333	127.343	95.8564	8.5676	131.13	121.29	2.19931	129.255	139.571	-7.58439	137.037	153.898	-15.8919	77.9072	124.028	-33.1162	71.2299	140.156	-46.3577	56.5953	155.064	-58.3734	54.2679	115.596	-25.0088	43.9626	131.604	-34.7533	22.5686	146.103	-43.1512	42.3262	106.746	-8.03077	27.5165	118.747	-14.2841	9.44462	129.129	-21.3906	37.3893	95.8345	16.4396	22.6661	104.11	17.5473	5.54924	106.954	16.4498	72.6676	74.1694	6.91183	93.0111	58.8979	20.6002	101.026	76.5214	0.875474	
53	0.441667	123.743	97.2933	9.43545	131.193	120.245	-1.31485	133.494	135.337	-12.8405	142.065	149.085	-27.8844	82.8484	118.237	-39.2927	75.0701	130.724	-53.9962	66.6254	143.284	-70.7338	59.926	115.766	-34.0334	43.9319	130.737	-49.283	29.4196	142.335	-60.5106	40.3589	111.479	-15.9344	29.0887	122.255	-25.4258	16.6648	135.135	-40.7651	34.9412	105.518	11.2243	21.7729	114.745	10.5621	6.67724	119.39	1.63621	69.6983	78.9905	8.20738	84.3109	66.0559	23.3299	99.174	78.0822	-0.256369	
54	0.45	118.503	95.3288	11.3008	125.61	113.965	-3.94198	133.614	124.748	-24.0411	143.417	131.687	-33.5601	85.1886	102.835	-50.2547	82.4883	110.991	-70.5224	77.6464	116.64	-86.6966	62.2426	102.567	-45.0464	51.5526	112.662	-65.2644	43.12	120.11	-81.6857	45.8068	104.548	-29.4149	32.7886	111.729	-40.993	24.572	118.778	-57.5345	31.9936	107.31	-3.69229	20.2032	115.839	-10.2772	2.27664	118.387	-18.3737	68.0544	81.3594	4.56423	77.466	70.6327	28.8483	95.4253	74.7234	1.30706	
55	0.458333	119.029	89.5938	11.9283	128.299	101.578	-10.6727	139.203	106.934	-26.039	149.578	109.99	-43.4195	96.3358	77.7444	-49.9746	91.8487	79.6695	-71.2353	90.1792	80.0214	-90.217	70.251	78.4629	-47.3661	63.5182	80.8339	-69.5199	52.2894	82.7055	-93.4515	51.3983	85.2187	-31.9259	45.5033	86.9868	-56.487	32.5359	88.8049	-71.0643	39.2534	94.8618	-13.2621	24.4587	101.107	-23.6041	13.7722	98.0268	-36.4922	68.2291	73.3569	5.73101	77.1056	72.5693	32.7527	99.635	67.8909	7.59858	
56	0.466667	125.387	83.5398	14.8078	137.341	91.1374	-8.93489	146.625	89.7143	-27.14	159.314	90.1465	-41.2565	105.813	53.7536	-42.5584	108.158	50.284	-61.195	106.75	43.7181	-84.5365	82.6362	52.9149	-40.7999	76.3127	48.6648	-61.3387	70.6523	41.8286	-85.7079	65.8164	61.7503	-31.0613	54.333	56.6137	-51.6012	47.25	53.6473	-69.2482	48.7667	74.8523	-18.0953	34.5999	76.741	-27.9934	21.0944	72.5137	-39.7257	74.9779	66.2843	12.1085	81.6972	69.9376	35.9838	102.955	61.903	16.1557	
57	0.475	133.804	83.293	19.5176	147.698	83.9147	-6.26696	160.848	80.8756	-24.3597	167.677	80.5045	-34.9719	125.468	37.4984	-28.1062	125.43	26.9568	-48.4791	126.054	17.759	-70.1585	98.4409	31.529	-28.6371	98.1392	17.6189	-49.5195	92.9266	6.45643	-68.3029	78.4616	39.8026	-21.1718	74.654	27.3404	-39.5054	73.1784	16.275	-59.0007	57.3873	52.1409	-13.015	52.1771	46.1412	-25.7331	37.5387	34.2836	-36.8202	89.7184	55.8668	18.1855	89.2283	65.7513	38.1098	113.299	58.1329	24.8096	
58	0.483333	140.399	84.1057	20.3433	154.763	89.0425	-0.390225	170.24	86.6821	-15.012	180.262	82.5748	-31.4251	144.676	32.4028	-17.7276	154.151	19.276	-37.1195	157.281	8.88938	-55.135	123.51	21.1499	-15.6156	125.087	0.829789	-34.7546	130.972	-15.5447	-52.8437	105.419	23.5153	-12.6067	100.11	6.318	-29.5053	102.976	-6.00617	-43.1367	77.7212	32.7077	-5.88174	71.6161	21.4689	-17.5821	63.7447	6.2784	-24.7206	100.669	50.0249	23.1741	98.9603	64.797	45.0222	126.491	59.5274	31.9831	
59	0.491667	141.948	91.7923	22.6103	159.189	100.433	2.92232	171.901	95.546	-14.7929	184.664	99.9264	-25.6803	167.946	43.5192	-12.1348	175.841	30.2286	-29.0977	182.925	17.1744	-47.5322	150.234	22.0763	-11.9733	158.813	5.49464	-25.8759	166.338	-9.83348	-39.4467	127.696	18.9017	-7.4182	132.047	2.03273	-21.4668	136.509	-11.1427	-34.9998	101.189	23.6328	-0.602995	98.3774	9.38541	-11.3095	99.707	-6.18582	-20.7016	119.366	44.7911	22.5184	109.767	61.0873	46.2784	136.597	63.8766	35.5702	
60	0.5	139.882	104.571	26.7916	151.141	110.924	5.33914	166.645	120.15	-7.96111	179.365	129.979	-20.0559	184.618	64.1135	-10.9112	199.804	59.9596	-29.7146	212.533	53.7673	-46.8526	175.095	44.8393	-8.44537	190.934	34.978	-23.8551	206.103	15.6181	-40.8549	158.038	27.0228	-7.6319	167.601	16.424	-20.747	179.009	4.29567	-35.2074	129.852	22.5687	-0.545566	139.834	8.36967	-13.8893	140.31	-6.93662	-19.1131	137.152	47.2166	25.3115	123.632	57.4201	46.2689	149.003	71.4228	34.94	
61	0.508333	131.406	108.89	26.277	132.353	125.943	9.02321	143.606	139.558	-6.1191	150.816	148.091	-18.0347	180.079	97.2967	-10.9047	196.832	95.279	-32.1244	207.984	100.384	-48.2514	181.789	69.9967	-13.0189	202.571	71.7878	-30.0551	219.89	66.9729	-46.0995	174.843	54.0785	-11.1691	187.978	47.8016	-23.861	201.963	40.4932	-39.5128	157.843	34.9686	-6.08036	163.614	25.244	-15.4193	179.963	12.0711	-27.0933	150.427	57.8921	21.2755	136.191	59.8518	44.1526	150.541	87.4143	34.6185	
